[Header]
FileType HTR
DataType HTRS
FileVersion 1
NumSegments 48
NumFrames 3
DataFrameRate 30
EulerRotationOrder ZYX
CalibrationUnits mm
RotationUnits Degrees
GlobalAxisofGravity Y
BoneLengthAxis Y
ScaleFactor 1.0
[SegmentNames&Hierarchy]
Wolf	GLOBAL
Becken	Wolf
Bauch	Becken
Bauch_001	Bauch
Brust	Bauch_001
Hals	Brust
Kopf_002	Hals
Kopf	Kopf_002
Unterkiefer	Kopf
Hals_fett	Unterkiefer
Maulunten	Unterkiefer
Mauloben	Kopf
MundW_L	Kopf
MundW_R	Kopf
Augen_con	Kopf
IK_Aug_R	Augen_con
IK_Aug_L	Augen_con
Aug_R	Kopf
aug_L	Kopf
Ohr_L	Kopf
Ohr_R	Kopf
Braun_O_L	Kopf
Braun_O_R	Kopf
aug_lied_O_L	Kopf
aug_lied_O_R	Kopf
aug_lied_U_L	Kopf
aug_lied_U_R	Kopf
Bauch_003	Brust
Schalterplatte_L	Bauch_003
Oberarm_L	Schalterplatte_L
Unterarm_L	Oberarm_L
Vorderpfote_L	Unterarm_L
Schalterplatte_R	Bauch_003
Oberarm_R	Schalterplatte_R
Unterarm_R	Oberarm_R
Vorderpfote_R	Unterarm_R
Schwanz	Becken
Schwanz_001	Schwanz
Schwanz_002	Schwanz_001
Schwanz_003	Schwanz_002
Oberschenkel_L	Becken
Unterschenkel_L	Oberschenkel_L
Pfote1_L	Unterschenkel_L
Pfote2_L	Pfote1_L
Oberschenkel_R	Becken
Unterschenkel_R	Oberschenkel_R
Pfote1_R	Unterschenkel_R
Pfote2_R	Pfote1_R
[BasePosition]
Wolf	0	0	0	0	0	0	1
Becken	0	0	0	0	0	0	1
Bauch	0	0	0	0	0	0	1
Bauch_001	0	0	0	0	0	0	1
Brust	0	0	0	0	0	0	1
Hals	0	0	0	0	0	0	1
Kopf_002	0	0	0	0	0	0	1
Kopf	0	0	0	0	0	0	1
Unterkiefer	0	0	0	0	0	0	1
Hals_fett	0	0	0	0	0	0	1
Maulunten	0	0	0	0	0	0	1
Mauloben	0	0	0	0	0	0	1
MundW_L	0	0	0	0	0	0	1
MundW_R	0	0	0	0	0	0	1
Augen_con	0	0	0	0	0	0	1
IK_Aug_R	0	0	0	0	0	0	1
IK_Aug_L	0	0	0	0	0	0	1
Aug_R	0	0	0	0	0	0	1
aug_L	0	0	0	0	0	0	1
Ohr_L	0	0	0	0	0	0	1
Ohr_R	0	0	0	0	0	0	1
Braun_O_L	0	0	0	0	0	0	1
Braun_O_R	0	0	0	0	0	0	1
aug_lied_O_L	0	0	0	0	0	0	1
aug_lied_O_R	0	0	0	0	0	0	1
aug_lied_U_L	0	0	0	0	0	0	1
aug_lied_U_R	0	0	0	0	0	0	1
Bauch_003	0	0	0	0	0	0	1
Schalterplatte_L	0	0	0	0	0	0	1
Oberarm_L	0	0	0	0	0	0	1
Unterarm_L	0	0	0	0	0	0	1
Vorderpfote_L	0	0	0	0	0	0	1
Schalterplatte_R	0	0	0	0	0	0	1
Oberarm_R	0	0	0	0	0	0	1
Unterarm_R	0	0	0	0	0	0	1
Vorderpfote_R	0	0	0	0	0	0	1
Schwanz	0	0	0	0	0	0	1
Schwanz_001	0	0	0	0	0	0	1
Schwanz_002	0	0	0	0	0	0	1
Schwanz_003	0	0	0	0	0	0	1
Oberschenkel_L	0	0	0	0	0	0	1
Unterschenkel_L	0	0	0	0	0	0	1
Pfote1_L	0	0	0	0	0	0	1
Pfote2_L	0	0	0	0	0	0	1
Oberschenkel_R	0	0	0	0	0	0	1
Unterschenkel_R	0	0	0	0	0	0	1
Pfote1_R	0	0	0	0	0	0	1
Pfote2_R	0	0	0	0	0	0	1
[Wolf]
25	0	0	0	-90	-0	0	1.0
26	0	0	0	-90	-0	0	1.0
27	0	0	0	-90	-0	0	1.0
[Becken]
25	0	0.5621799231	0.4225141406	1.985554457	169.3895569	90.71377563	1.0
26	0	0.5621799231	0.420330137	2.00321269	169.3897705	90.72011566	1.0
27	0	0.5621799231	0.4230341613	1.983639479	169.3895264	90.71308136	1.0
[Bauch]
25	0.9404072165	7.335228958e-08	-0.3559131622	-9.70548399e-07	12.60522652	-8.885302805e-08	1.0
26	0.9404072165	7.335228958e-08	-0.3559131622	-9.70548399e-07	12.60522652	-8.885302805e-08	1.0
27	0.9404072165	7.335228958e-08	-0.3559131622	-9.70548399e-07	12.60522652	-8.885302805e-08	1.0
[Bauch_001]
25	1.081897616	8.323696221e-08	1.180524034e-08	-2.503413032e-09	2.360082865	-2.670307531e-08	1.0
26	1.081897616	8.323696221e-08	1.180524034e-08	-2.503413032e-09	2.360082865	-2.670307531e-08	1.0
27	1.081897616	8.323696221e-08	1.180524034e-08	-2.503413032e-09	2.360082865	-2.670307531e-08	1.0
[Brust]
25	1.069831252	8.440110832e-08	3.139576066e-08	5.110827715e-06	10.8514061	-3.549572648e-05	1.0
26	1.069831252	8.440110832e-08	3.139576066e-08	5.110827715e-06	10.76275635	-3.549572648e-05	1.0
27	1.069831252	8.440110832e-08	3.139576066e-08	5.110827715e-06	10.8723011	-3.549572648e-05	1.0
[Hals]
25	1.258022308	9.662471712e-08	0.6079561114	-4.810633527e-06	46.87745667	-2.341890877e-06	1.0
26	1.258022308	9.662471712e-08	0.6079561114	-4.810633527e-06	46.87745667	-2.341890877e-06	1.0
27	1.258022308	9.662471712e-08	0.6079561114	-4.810633527e-06	46.87745667	-2.341890877e-06	1.0
[Kopf_002]
25	1.752595186	3.012712114e-05	0.265181601	0.006653386634	-165.1497192	0.002557684667	1.0
26	1.752595186	3.012712114e-05	0.265181601	0.006653386634	-165.1497192	0.002557684667	1.0
27	1.752595186	3.012712114e-05	0.265181601	0.006653386634	-165.1497192	0.002557684667	1.0
[Kopf]
25	1.015782118	6.868503988e-08	-5.515175872e-08	0.06857251376	123.0509033	-0.02617646009	1.0
26	1.015782118	6.868503988e-08	-5.515175872e-08	0.06871986389	123.2280426	-0.02605214715	1.0
27	1.015782118	6.868503988e-08	-5.515175872e-08	0.06853695214	123.0091553	-0.02620536461	1.0
[Unterkiefer]
25	0.6370447874	0.004552732222	0.4060618579	5.412721634	-68.3888092	-3.093543291	1.0
26	0.6370447874	0.004552732222	0.4060618579	5.412721634	-68.3888092	-3.093543291	1.0
27	0.6370447874	0.004552732222	0.4060618579	5.412721634	-68.3888092	-3.093543291	1.0
[Hals_fett]
25	0.2998305857	0.007747137919	0.1206372604	-5.071650982	-59.35961151	5.585564613	1.0
26	0.2998305857	0.007747137919	0.1206372604	-5.071650982	-59.35961151	5.585564613	1.0
27	0.2998305857	0.007747137919	0.1206372604	-5.071650982	-59.35961151	5.585564613	1.0
[Maulunten]
25	0.0831861794	-0.007747565862	-0.1206544712	-3.322209358	38.97271347	-0.8718761206	1.0
26	0.0831861794	-0.007747565862	-0.1206544712	-3.322209358	38.97271347	-0.8718761206	1.0
27	0.0831861794	-0.007747565862	-0.1206544712	-3.322209358	38.97271347	-0.8718761206	1.0
[Mauloben]
25	0.9101490974	0.0004056713078	0.4003697634	-0.1032672822	-28.7776947	0.03543138877	1.0
26	0.9101490974	0.0004056713078	0.4003697634	-0.1032672822	-28.7776947	0.03543138877	1.0
27	0.9101490974	0.0004056713078	0.4003697634	-0.1032672822	-28.7776947	0.03543138877	1.0
[MundW_L]
25	0.673060894	-0.3618555963	0.3751283586	-179.8370972	-17.94885063	24.713974	1.0
26	0.673060894	-0.3618555963	0.3751283586	-179.8370972	-17.94885063	24.713974	1.0
27	0.673060894	-0.3618555963	0.3751283586	-179.8370972	-17.94885063	24.713974	1.0
[MundW_R]
25	0.6732419133	0.3627035022	0.3739836514	179.665329	-18.02427101	-24.69083595	1.0
26	0.6732419133	0.3627035022	0.3739836514	179.665329	-18.02427101	-24.69083595	1.0
27	0.6732419133	0.3627035022	0.3739836514	179.665329	-18.02427101	-24.69083595	1.0
[Augen_con]
25	1.807373166	-0.0001604110003	0.183581531	0.0982221961	157.1545258	0.02385941334	1.0
26	1.807373166	-0.0001604110003	0.183581531	0.0982221961	157.1545258	0.02385941334	1.0
27	1.807373166	-0.0001604110003	0.183581531	0.0982221961	157.1545258	0.02385941334	1.0
[IK_Aug_R]
25	0.3461295962	0.2943200469	-1.071020961e-07	-0.4194760025	-4.963055134	165.6946411	1.0
26	0.3461295962	0.2943200469	-1.071020961e-07	-0.4194760025	-4.963055134	165.6946411	1.0
27	0.3461295962	0.2943200469	-1.071020961e-07	-0.4194760025	-4.963055134	165.6946411	1.0
[IK_Aug_L]
25	0.3461301029	-0.2943200171	-1.967418939e-07	0.4194771945	-4.963055134	-165.6946411	1.0
26	0.3461301029	-0.2943200171	-1.967418939e-07	0.4194771945	-4.963055134	-165.6946411	1.0
27	0.3461301029	-0.2943200171	-1.967418939e-07	0.4194771945	-4.963055134	-165.6946411	1.0
[Aug_R]
25	1.035154939	0.2207805216	-0.09605780989	176.004776	-17.29167175	12.85548782	1.0
26	1.035154939	0.2207805216	-0.09605780989	176.004776	-17.29167175	12.85548782	1.0
27	1.035154939	0.2207805216	-0.09605780989	176.004776	-17.29167175	12.85548782	1.0
[aug_L]
25	1.03504467	-0.2215988934	-0.09535907209	-176.1891022	-17.33180046	-12.83102131	1.0
26	1.03504467	-0.2215988934	-0.09535907209	-176.1891022	-17.33180046	-12.83102131	1.0
27	1.03504467	-0.2215988934	-0.09535907209	-176.1891022	-17.33180046	-12.83102131	1.0
[Ohr_L]
25	0.6407766938	-0.3659991026	-0.6893324852	-24.34923935	53.07765961	-15.02013397	1.0
26	0.6407766938	-0.3659991026	-0.6893324852	-24.34923935	53.07765961	-15.02013397	1.0
27	0.6407766938	-0.3659991026	-0.6893324852	-24.34923935	53.07765961	-15.02013397	1.0
[Ohr_R]
25	0.640958488	0.36349985	-0.690484941	24.05785561	53.12415695	14.75856686	1.0
26	0.640958488	0.36349985	-0.690484941	24.05785561	53.12415695	14.75856686	1.0
27	0.640958488	0.36349985	-0.690484941	24.05785561	53.12415695	14.75856686	1.0
[Braun_O_L]
25	0.9801894426	-0.3706049323	-0.3292509615	-143.317215	-34.69636154	52.39493942	1.0
26	0.9801894426	-0.3706049323	-0.3292509615	-143.317215	-34.69636154	52.39493942	1.0
27	0.9801894426	-0.3706049323	-0.3292509615	-143.317215	-34.69636154	52.39493942	1.0
[Braun_O_R]
25	0.9803640842	0.3690741956	-0.3304226995	143.1826782	-34.83971405	-52.34676361	1.0
26	0.9803640842	0.3690741956	-0.3304226995	143.1826782	-34.83971405	-52.34676361	1.0
27	0.9803640842	0.3690741956	-0.3304226995	143.1826782	-34.83971405	-52.34676361	1.0
[aug_lied_O_L]
25	1.038882375	-0.3271433413	-0.1608109176	-175.8613434	-20.15596771	60.31667709	1.0
26	1.038882375	-0.3271433413	-0.1608109176	-175.8613434	-20.15596771	60.31667709	1.0
27	1.038882375	-0.3271433413	-0.1608109176	-175.8613434	-20.15596771	60.31667709	1.0
[aug_lied_O_R]
25	1.039044976	0.326115787	-0.1618431658	175.7657928	-20.31324005	-60.31218338	1.0
26	1.039044976	0.326115787	-0.1618431658	175.7657928	-20.31324005	-60.31218338	1.0
27	1.039044976	0.326115787	-0.1618431658	175.7657928	-20.31324005	-60.31218338	1.0
[aug_lied_U_L]
25	1.02191329	-0.3312865198	-0.1338392347	-159.8099365	-28.7482872	60.17462158	1.0
26	1.02191329	-0.3312865198	-0.1338392347	-159.8099365	-28.7482872	60.17462158	1.0
27	1.02191329	-0.3312865198	-0.1338392347	-159.8099365	-28.7482872	60.17462158	1.0
[aug_lied_U_R]
25	1.022078872	0.3303525448	-0.1348842829	159.7071381	-28.90532303	-60.15359116	1.0
26	1.022078872	0.3303525448	-0.1348842829	159.7071381	-28.90532303	-60.15359116	1.0
27	1.022078872	0.3303525448	-0.1348842829	159.7071381	-28.90532303	-60.15359116	1.0
[Bauch_003]
25	1.276869178	9.429641068e-08	-0.6079563498	-3.842957085e-06	-137.6799469	1.008550771e-05	1.0
26	1.276869178	9.429641068e-08	-0.6079563498	-3.842957085e-06	-137.6799469	1.008550771e-05	1.0
27	1.276869178	9.429641068e-08	-0.6079563498	-3.842957085e-06	-137.6799469	1.008550771e-05	1.0
[Schalterplatte_L]
25	1.121712685	-0.4069259465	0.1839381307	-0.9373309016	69.54769897	-27.04901314	1.0
26	1.126119137	-0.4077699482	0.1865276694	-1.031846046	69.61283875	-27.13996506	1.0
27	1.120697856	-0.4067219496	0.1832716018	-1.58930707	69.8549881	-27.74845314	1.0
[Oberarm_L]
25	1.418636799	1.443549991e-07	9.778887033e-08	-63.12580109	-62.92050934	76.08158112	1.0
26	1.418636799	1.443549991e-07	9.778887033e-08	-63.35916901	-62.98402786	76.37883759	1.0
27	1.418636799	1.443549991e-07	9.778887033e-08	-65.01326752	-63.38451385	78.38732147	1.0
[Unterarm_L]
25	2.028227329	8.847563748e-08	-3.725290298e-07	3.499651432	47.11903381	3.791964531	1.0
26	2.028227329	8.847563748e-08	-3.725290298e-07	3.560704708	47.27212524	3.861253262	1.0
27	2.028227329	8.847563748e-08	-3.725290298e-07	3.852395535	48.09790039	4.180907726	1.0
[Vorderpfote_L]
25	1.705947638	1.746229827e-07	-5.704351125e-08	-2.967746973	87.31764984	-1.992631435	1.0
26	1.705947638	1.746229827e-07	-5.704351125e-08	-2.831735373	87.42544556	-1.856469512	1.0
27	1.705947638	1.746229827e-07	-5.704351125e-08	-8.330877304	86.19052887	-7.167021275	1.0
[Schalterplatte_R]
25	0.9883496761	0.3825584352	-0.119891122	55.52753448	80.25424957	84.90664673	1.0
26	0.989798367	0.382600069	-0.121274814	49.8187561	79.97060394	78.79456329	1.0
27	0.9879931808	0.3826416731	-0.119521156	45.82881927	79.67415619	74.55847168	1.0
[Oberarm_R]
25	1.418636322	-1.210719205e-07	-7.450580597e-08	47.76686859	-55.37023544	-55.2563858	1.0
26	1.418636322	-1.210719205e-07	-7.450580597e-08	45.17517853	-53.90250397	-51.97111511	1.0
27	1.418636322	-1.210719205e-07	-7.450580597e-08	44.10546494	-53.16381454	-50.61426544	1.0
[Unterarm_R]
25	2.028231859	1.676380634e-07	-3.608874977e-07	0.5921638012	52.49230957	0.9340859056	1.0
26	2.028231859	1.676380634e-07	-3.608874977e-07	0.6872067451	49.96162415	1.042639613	1.0
27	2.028231859	1.676380634e-07	-3.608874977e-07	0.6786419749	48.45835114	1.03878665	1.0
[Vorderpfote_R]
25	1.705937624	7.799826562e-08	1.461012289e-07	0.9662945271	47.29111099	0.9215566516	1.0
26	1.705937624	7.799826562e-08	1.461012289e-07	1.514163613	54.80509186	0.9114673734	1.0
27	1.705937624	7.799826562e-08	1.461012289e-07	1.774165988	59.59011841	1.221304893	1.0
[Schwanz]
25	-0.1710730195	-1.382431947e-08	0.1051249206	-2.220226997e-05	-111.6516724	2.181978562e-05	1.0
26	-0.1725832969	-1.382431947e-08	0.1059697941	-2.220226997e-05	-111.4825287	2.181978562e-05	1.0
27	-0.1707206815	-1.382431947e-08	0.1049205065	-2.220226997e-05	-111.6915436	2.181978562e-05	1.0
[Schwanz_001]
25	0.9104328156	6.868503988e-08	7.788912626e-08	-2.408194405e-06	4.586372852	-5.75290926e-07	1.0
26	0.9104328156	6.868503988e-08	7.788912626e-08	-2.408194405e-06	4.355987072	-5.75290926e-07	1.0
27	0.9104328156	6.868503988e-08	7.788912626e-08	-2.408194405e-06	4.640674591	-5.75290926e-07	1.0
[Schwanz_002]
25	0.7855660319	5.704351125e-08	-1.185253495e-07	8.174235973e-07	-11.54250336	-1.362372615e-07	1.0
26	0.7855660319	5.704351125e-08	-1.185253495e-07	8.174235973e-07	-11.70932198	-1.362372615e-07	1.0
27	0.7855660319	5.704351125e-08	-1.185253495e-07	8.174235973e-07	-11.50319576	-1.362372615e-07	1.0
[Schwanz_003]
25	0.8350355029	6.286426668e-08	-2.072192729e-07	-2.187832479e-06	-0.4228048623	1.867661581e-07	1.0
26	0.8350355029	6.286426668e-08	-2.072192729e-07	-2.187832479e-06	-0.3345038593	1.867661581e-07	1.0
27	0.8350355029	6.286426668e-08	-2.072192729e-07	-2.187832479e-06	-0.443623215	1.867661581e-07	1.0
[Oberschenkel_L]
25	0.545011282	-0.5836999416	0.1082848683	-166.9438324	-127.1025543	172.7917938	1.0
26	0.5429937243	-0.5836999416	0.1153213903	-166.9178314	-126.9725647	172.7592316	1.0
27	0.5480738282	-0.5836999416	0.1173232347	-166.8819885	-126.7954865	172.714447	1.0
[Unterschenkel_L]
25	1.686439037	6.984918599e-08	-6.053597446e-08	-18.96803665	-45.34951019	29.09249687	1.0
26	1.686439037	6.984918599e-08	-6.053597446e-08	-18.72829437	-44.7870636	28.85779572	1.0
27	1.686439037	6.984918599e-08	-6.053597446e-08	-18.80871391	-45.03089905	28.96057892	1.0
[Pfote1_L]
25	1.190900326	6.519258022e-08	1.396983862e-07	2.144331455	34.48501205	-6.126646042	1.0
26	1.190900326	6.519258022e-08	1.396983862e-07	2.152312994	34.34468842	-6.112528801	1.0
27	1.190900326	6.519258022e-08	1.396983862e-07	2.141304493	34.53792953	-6.131980896	1.0
[Pfote2_L]
25	0.9876257777	7.450580597e-08	-5.587935092e-08	-9.254716873	78.03236389	-16.22354698	1.0
26	0.9876257777	7.450580597e-08	-5.587935092e-08	-8.91138649	77.97676086	-15.90350628	1.0
27	0.9876257777	7.450580597e-08	-5.587935092e-08	-9.154683113	78.2072525	-16.15228653	1.0
[Oberschenkel_R]
25	0.4466567039	0.5837000012	0.1344870478	-96.08655548	-84.83312225	91.96331787	1.0
26	0.4447737336	0.5837000012	0.1341091245	-99.02577972	-84.82050323	94.91456604	1.0
27	0.4449879527	0.5837000012	0.1284227073	-88.83420563	-84.79091644	84.68125153	1.0
[Unterschenkel_R]
25	1.68644917	1.164153218e-07	2.793967901e-08	12.23239708	-40.82958984	-17.95078087	1.0
26	1.68644917	1.164153218e-07	2.793967901e-08	12.15238571	-40.6240921	-17.85581779	1.0
27	1.68644917	1.164153218e-07	2.793967901e-08	12.57717133	-41.90833282	-18.31070709	1.0
[Pfote1_R]
25	1.190900087	1.856824383e-07	4.190951941e-08	-1.839348078	21.65484238	6.812007904	1.0
26	1.190900087	1.856824383e-07	4.190951941e-08	-1.832841992	21.37807083	6.829721928	1.0
27	1.190900087	1.856824383e-07	4.190951941e-08	-1.84032464	21.6958847	6.809373856	1.0
[Pfote2_R]
25	0.9876258373	6.984919754e-09	6.635672634e-08	8.916397095	77.29260254	12.32853794	1.0
26	0.9876258373	6.984919754e-09	6.635672634e-08	8.537348747	76.84846497	11.91162777	1.0
27	0.9876258373	6.984919754e-09	6.635672634e-08	9.207321167	77.23370361	12.62669182	1.0
[EndOfFile]
